<svg width="16" height="22" viewBox="0 0 16 22" fill="none" xmlns="http://www.w3.org/2000/svg">
<path d="M16.0002 8.10526C16.0002 12.5817 12.4185 16.2105 8.00024 16.2105C3.58197 16.2105 0.000244141 12.5817 0.000244141 8.10526C0.000244141 3.62885 3.58197 0 8.00024 0C12.4185 0 16.0002 3.62885 16.0002 8.10526Z" fill="#FFD600"/>
<path d="M11.4288 16.8632C11.4288 16.7356 11.2974 16.6513 11.1819 16.7021C10.2068 17.1308 9.13092 17.3684 8.00024 17.3684C6.86957 17.3684 5.79368 17.1308 4.81858 16.7021C4.70306 16.6513 4.57167 16.7356 4.57167 16.8632V19.1053C4.57167 20.704 5.85086 22 7.42882 22H8.57167C10.1496 22 11.4288 20.704 11.4288 19.1053V16.8632Z" fill="#222222"/>
</svg>
