<svg width="49" height="49" viewBox="0 0 49 49" fill="none" xmlns="http://www.w3.org/2000/svg">
<rect width="49" height="49" rx="4" fill="#DEE1E7"/>
<path d="M13.2447 25.1739L4.35062 21.8211C3.99678 21.6877 3.99678 21.1872 4.35061 21.0538L24.2918 13.5367C24.7465 13.3653 25.248 13.3653 25.7027 13.5367L45.6439 21.0538C45.9977 21.1872 45.9977 21.6877 45.6439 21.8211L36.7498 25.1739" stroke="#222222" stroke-width="2" stroke-linecap="round" stroke-linejoin="round"/>
<path d="M29.4133 27.5625C29.4133 28.1148 29.861 28.5625 30.4133 28.5625C30.9656 28.5625 31.4133 28.1148 31.4133 27.5625H29.4133ZM29.4133 15.3125V27.5625H31.4133V15.3125H29.4133Z" fill="#222222"/>
<path d="M13.0818 25.5208V33.6875L24.9972 37.7708L36.9126 33.6875V25.5208C36.9126 25.5208 35.8294 21.4375 24.9972 21.4375C14.1651 21.4375 13.0818 25.5208 13.0818 25.5208Z" stroke="#222222" stroke-width="2" stroke-linecap="round" stroke-linejoin="round"/>
</svg>
