<svg width="30" height="30" viewBox="0 0 30 30" fill="none" xmlns="http://www.w3.org/2000/svg">
<path d="M20.234 9.52353L20.2327 9.52487L12.3721 17.4348L9.02771 14.0904C8.49064 13.5533 7.62036 13.5536 7.08315 14.0902L7.08292 14.0904C6.54597 14.6273 6.54597 15.4978 7.08292 16.0347L11.4137 20.366L11.414 20.3662C11.951 20.9026 12.8209 20.9022 13.3581 20.3664L13.3585 20.366C13.4112 20.3133 13.4552 20.2596 13.4924 20.2088L22.1792 11.4683C22.1793 11.4682 22.1794 11.4681 22.1795 11.468C22.7155 10.9309 22.7151 10.0612 22.1794 9.5242L22.1788 9.52353C21.6414 8.98688 20.7713 8.98688 20.234 9.52353ZM15 0.5C6.99192 0.5 0.5 6.99192 0.5 15C0.5 23.0085 6.99193 29.5 15 29.5C23.0085 29.5 29.5 23.0085 29.5 15C29.5 6.99193 23.0085 0.5 15 0.5ZM15 26.7776C8.52304 26.7776 3.25 21.4799 3.25 14.9999C3.25 8.52152 8.52158 3.24995 15 3.24995C21.4784 3.24995 26.75 8.52155 26.75 14.9999C26.75 21.4798 21.477 26.7776 15 26.7776Z" fill="#3FA75C" stroke="#3FA75C"/>
</svg>
