<svg width="42" height="42" viewBox="0 0 42 42" fill="none" xmlns="http://www.w3.org/2000/svg">
<path d="M8.75 23.0585C8.75 22.0494 8.75 21.5448 8.97166 21.1141C9.19333 20.6833 9.6039 20.3901 10.425 19.8035L19.8375 13.0803C20.3989 12.6794 20.6795 12.4789 21 12.4789C21.3205 12.4789 21.6011 12.6794 22.1625 13.0803L31.575 19.8035C32.3961 20.3901 32.8067 20.6833 33.0283 21.1141C33.25 21.5448 33.25 22.0494 33.25 23.0585V34.75C33.25 35.6928 33.25 36.1642 32.9571 36.4571C32.6642 36.75 32.1928 36.75 31.25 36.75H10.75C9.80719 36.75 9.33579 36.75 9.04289 36.4571C8.75 36.1642 8.75 35.6928 8.75 34.75V23.0585Z" fill="#7E869E" fill-opacity="0.25"/>
<path d="M5.25 22.1366C5.25 22.4035 5.25 22.5369 5.3341 22.5781C5.41819 22.6192 5.52352 22.5373 5.73418 22.3734L19.7721 11.455C20.362 10.9962 20.6569 10.7669 21 10.7669C21.3431 10.7669 21.638 10.9962 22.2279 11.455L36.2658 22.3734C36.4765 22.5373 36.5818 22.6192 36.6659 22.5781C36.75 22.5369 36.75 22.4035 36.75 22.1366V20.2282C36.75 19.7478 36.75 19.5076 36.6483 19.2997C36.5466 19.0918 36.357 18.9444 35.9779 18.6495L22.2279 7.95502C21.638 7.49625 21.3431 7.26686 21 7.26686C20.6569 7.26686 20.362 7.49625 19.7721 7.95502L6.02212 18.6495C5.64295 18.9444 5.45337 19.0918 5.35168 19.2997C5.25 19.5076 5.25 19.7478 5.25 20.2282V22.1366Z" fill="#222222"/>
<path d="M23.375 26.25H18.625C17.5204 26.25 16.625 27.1454 16.625 28.25V36.6C16.625 36.6828 16.6922 36.75 16.775 36.75H25.225C25.3078 36.75 25.375 36.6828 25.375 36.6V28.25C25.375 27.1454 24.4796 26.25 23.375 26.25Z" fill="#222222"/>
<rect x="28" y="8.75" width="3.5" height="7" rx="0.5" fill="#222222"/>
</svg>
