<svg width="84" height="51" viewBox="0 0 84 51" fill="none" xmlns="http://www.w3.org/2000/svg">
<g filter="url(#filter0_d_58_158)">
<rect x="4" width="76" height="43" rx="2" fill="#55CD77"/>
</g>
<path d="M32.9914 28H30.3314L24.3084 18.899V28H21.6484V14.719H24.3084L30.3314 23.839V14.719H32.9914V28ZM45.4051 22.509C45.4051 22.889 45.3797 23.231 45.3291 23.535H37.6341C37.6974 24.295 37.9634 24.8903 38.4321 25.321C38.9007 25.7517 39.4771 25.967 40.1611 25.967C41.1491 25.967 41.8521 25.5427 42.2701 24.694H45.1391C44.8351 25.7073 44.2524 26.5433 43.3911 27.202C42.5297 27.848 41.4721 28.171 40.2181 28.171C39.2047 28.171 38.2927 27.9493 37.4821 27.506C36.6841 27.05 36.0571 26.4103 35.6011 25.587C35.1577 24.7637 34.9361 23.8137 34.9361 22.737C34.9361 21.6477 35.1577 20.6913 35.6011 19.868C36.0444 19.0447 36.6651 18.4113 37.4631 17.968C38.2611 17.5247 39.1794 17.303 40.2181 17.303C41.2187 17.303 42.1117 17.5183 42.8971 17.949C43.6951 18.3797 44.3094 18.994 44.7401 19.792C45.1834 20.5773 45.4051 21.483 45.4051 22.509ZM42.6501 21.749C42.6374 21.065 42.3904 20.5203 41.9091 20.115C41.4277 19.697 40.8387 19.488 40.1421 19.488C39.4834 19.488 38.9261 19.6907 38.4701 20.096C38.0267 20.4887 37.7544 21.0397 37.6531 21.749H42.6501ZM53.1606 28L50.9946 24.732L49.0756 28H46.2256L49.6646 22.718L46.1876 17.474H49.1896L51.3366 20.723L53.2746 17.474H56.1246L52.6666 22.718L56.1626 28H53.1606ZM60.7044 19.659V24.751C60.7044 25.1057 60.7867 25.3653 60.9514 25.53C61.1287 25.682 61.4201 25.758 61.8254 25.758H63.0604V28H61.3884C59.1464 28 58.0254 26.9107 58.0254 24.732V19.659H56.7714V17.474H58.0254V14.871H60.7044V17.474H63.0604V19.659H60.7044Z" fill="white"/>
<defs>
<filter id="filter0_d_58_158" x="0" y="0" width="84" height="51" filterUnits="userSpaceOnUse" color-interpolation-filters="sRGB">
<feFlood flood-opacity="0" result="BackgroundImageFix"/>
<feColorMatrix in="SourceAlpha" type="matrix" values="0 0 0 0 0 0 0 0 0 0 0 0 0 0 0 0 0 0 127 0" result="hardAlpha"/>
<feOffset dy="4"/>
<feGaussianBlur stdDeviation="2"/>
<feComposite in2="hardAlpha" operator="out"/>
<feColorMatrix type="matrix" values="0 0 0 0 0 0 0 0 0 0 0 0 0 0 0 0 0 0 0.25 0"/>
<feBlend mode="normal" in2="BackgroundImageFix" result="effect1_dropShadow_58_158"/>
<feBlend mode="normal" in="SourceGraphic" in2="effect1_dropShadow_58_158" result="shape"/>
</filter>
</defs>
</svg>
