<svg width="30" height="30" viewBox="0 0 30 30" fill="none" xmlns="http://www.w3.org/2000/svg">
<path d="M0 8.00001C0 4.22877 0 2.34315 1.17157 1.17157C2.34315 0 4.22876 0 8 0H21.3023C25.0736 0 26.9592 0 28.1308 1.17157C29.3023 2.34315 29.3023 4.22876 29.3023 8V21.3023C29.3023 25.0736 29.3023 26.9592 28.1308 28.1308C26.9592 29.3023 25.0736 29.3023 21.3023 29.3023H8.00001C4.22877 29.3023 2.34315 29.3023 1.17157 28.1308C0 26.9592 0 25.0736 0 21.3023V8.00001Z" fill="#DEE1E7"/>
<circle cx="14.6511" cy="11.3953" r="6.51163" fill="#222222"/>
<path fill-rule="evenodd" clip-rule="evenodd" d="M7.92165 29.3023C5.99332 29.3023 4.56274 29.3001 3.46997 29.1358C3.34787 29.1175 3.25992 29.01 3.26605 28.8867C3.32273 27.7459 3.61241 26.6213 4.12315 25.5645C4.69582 24.3794 5.53519 23.3027 6.59335 22.3957C7.6515 21.4887 8.90772 20.7692 10.2903 20.2784C11.6728 19.7875 13.1546 19.5349 14.6511 19.5349C16.1475 19.5349 17.6293 19.7875 19.0119 20.2784C20.3944 20.7692 21.6506 21.4887 22.7088 22.3957C23.767 23.3027 24.6063 24.3794 25.179 25.5645C25.6897 26.6213 25.9794 27.7459 26.0361 28.8866C26.0422 29.0099 25.9543 29.1174 25.8322 29.1358C24.7445 29.2993 23.3221 29.3022 21.4073 29.3023C21.3724 29.3023 21.3374 29.3023 21.3021 29.3023L14.6511 29.3023L7.99982 29.3023C7.97367 29.3023 7.94761 29.3023 7.92165 29.3023Z" fill="#222222"/>
</svg>
