<svg width="30" height="30" viewBox="0 0 30 30" fill="none" xmlns="http://www.w3.org/2000/svg">
<path d="M10.758 21.3632L15 17.1212L19.242 21.3632L21.363 19.2422L17.121 15.0002L21.363 10.7582L19.242 8.63721L15 12.8792L10.758 8.63721L8.63696 10.7582L12.879 15.0002L8.63696 19.2422L10.758 21.3632Z" fill="#F77272"/>
<path d="M15 30C23.271 30 30 23.271 30 15C30 6.729 23.271 0 15 0C6.729 0 0 6.729 0 15C0 23.271 6.729 30 15 30ZM15 3C21.6165 3 27 8.3835 27 15C27 21.6165 21.6165 27 15 27C8.3835 27 3 21.6165 3 15C3 8.3835 8.3835 3 15 3Z" fill="#F77272"/>
</svg>
